<mxfile host="Electron" modified="2025-07-09T06:32:45.309Z" agent="Mozilla/5.0 (Windows NT 10.0; Win64; x64) AppleWebKit/537.36 (KHTML, like Gecko) draw.io/24.2.5 Chrome/120.0.6099.109 Electron/28.1.0 Safari/537.36" etag="04MX6bd13IG5iOb0OIqL" version="24.2.5" type="device">
  <diagram name="第 1 页" id="MWYmvUczC4uvlu_2mho3">
    <mxGraphModel dx="1140" dy="776" grid="0" gridSize="10" guides="1" tooltips="1" connect="1" arrows="1" fold="1" page="0" pageScale="1" pageWidth="827" pageHeight="1169" math="0" shadow="0">
      <root>
        <mxCell id="0" />
        <mxCell id="1" parent="0" />
        <mxCell id="aSsw-ouWqBEXRsrmfO2s-16" value="" style="edgeStyle=orthogonalEdgeStyle;rounded=0;orthogonalLoop=1;jettySize=auto;html=1;" edge="1" parent="1" source="aSsw-ouWqBEXRsrmfO2s-1" target="aSsw-ouWqBEXRsrmfO2s-2">
          <mxGeometry relative="1" as="geometry" />
        </mxCell>
        <mxCell id="aSsw-ouWqBEXRsrmfO2s-1" value="Actor" style="shape=umlActor;verticalLabelPosition=bottom;verticalAlign=top;html=1;outlineConnect=0;" vertex="1" parent="1">
          <mxGeometry x="67" y="260" width="30" height="60" as="geometry" />
        </mxCell>
        <mxCell id="aSsw-ouWqBEXRsrmfO2s-15" value="" style="edgeStyle=orthogonalEdgeStyle;rounded=0;orthogonalLoop=1;jettySize=auto;html=1;" edge="1" parent="1" source="aSsw-ouWqBEXRsrmfO2s-2" target="aSsw-ouWqBEXRsrmfO2s-12">
          <mxGeometry relative="1" as="geometry" />
        </mxCell>
        <mxCell id="aSsw-ouWqBEXRsrmfO2s-17" style="edgeStyle=orthogonalEdgeStyle;rounded=0;orthogonalLoop=1;jettySize=auto;html=1;entryX=0;entryY=0.5;entryDx=0;entryDy=0;" edge="1" parent="1" source="aSsw-ouWqBEXRsrmfO2s-2" target="aSsw-ouWqBEXRsrmfO2s-3">
          <mxGeometry relative="1" as="geometry">
            <Array as="points">
              <mxPoint x="211" y="100" />
            </Array>
          </mxGeometry>
        </mxCell>
        <mxCell id="aSsw-ouWqBEXRsrmfO2s-2" value="任务分配" style="rounded=1;whiteSpace=wrap;html=1;" vertex="1" parent="1">
          <mxGeometry x="156" y="260" width="120" height="60" as="geometry" />
        </mxCell>
        <mxCell id="aSsw-ouWqBEXRsrmfO2s-3" value="" style="rounded=1;whiteSpace=wrap;html=1;" vertex="1" parent="1">
          <mxGeometry x="240" y="20" width="260" height="160" as="geometry" />
        </mxCell>
        <mxCell id="aSsw-ouWqBEXRsrmfO2s-4" value="" style="shape=step;perimeter=stepPerimeter;whiteSpace=wrap;html=1;fixedSize=1;" vertex="1" parent="1">
          <mxGeometry x="290" y="70" width="200" height="80" as="geometry" />
        </mxCell>
        <mxCell id="aSsw-ouWqBEXRsrmfO2s-5" value="任务缓冲区" style="text;html=1;align=center;verticalAlign=middle;whiteSpace=wrap;rounded=0;" vertex="1" parent="1">
          <mxGeometry x="251" y="30" width="106" height="30" as="geometry" />
        </mxCell>
        <mxCell id="aSsw-ouWqBEXRsrmfO2s-7" value="task" style="ellipse;whiteSpace=wrap;html=1;aspect=fixed;" vertex="1" parent="1">
          <mxGeometry x="310" y="70" width="80" height="80" as="geometry" />
        </mxCell>
        <mxCell id="aSsw-ouWqBEXRsrmfO2s-9" value="阻塞队列" style="text;html=1;align=center;verticalAlign=middle;whiteSpace=wrap;rounded=0;" vertex="1" parent="1">
          <mxGeometry x="410" y="40" width="60" height="30" as="geometry" />
        </mxCell>
        <mxCell id="aSsw-ouWqBEXRsrmfO2s-10" value="task" style="ellipse;whiteSpace=wrap;html=1;aspect=fixed;" vertex="1" parent="1">
          <mxGeometry x="390" y="70" width="80" height="80" as="geometry" />
        </mxCell>
        <mxCell id="aSsw-ouWqBEXRsrmfO2s-14" value="" style="edgeStyle=orthogonalEdgeStyle;rounded=0;orthogonalLoop=1;jettySize=auto;html=1;" edge="1" parent="1" source="aSsw-ouWqBEXRsrmfO2s-12" target="aSsw-ouWqBEXRsrmfO2s-13">
          <mxGeometry relative="1" as="geometry" />
        </mxCell>
        <mxCell id="aSsw-ouWqBEXRsrmfO2s-12" value="task" style="ellipse;whiteSpace=wrap;html=1;aspect=fixed;" vertex="1" parent="1">
          <mxGeometry x="350" y="250" width="80" height="80" as="geometry" />
        </mxCell>
        <mxCell id="aSsw-ouWqBEXRsrmfO2s-29" style="rounded=0;orthogonalLoop=1;jettySize=auto;html=1;entryX=0;entryY=1;entryDx=0;entryDy=0;" edge="1" parent="1" source="aSsw-ouWqBEXRsrmfO2s-13" target="aSsw-ouWqBEXRsrmfO2s-21">
          <mxGeometry relative="1" as="geometry" />
        </mxCell>
        <mxCell id="aSsw-ouWqBEXRsrmfO2s-30" style="rounded=0;orthogonalLoop=1;jettySize=auto;html=1;" edge="1" parent="1" source="aSsw-ouWqBEXRsrmfO2s-13" target="aSsw-ouWqBEXRsrmfO2s-27">
          <mxGeometry relative="1" as="geometry" />
        </mxCell>
        <mxCell id="aSsw-ouWqBEXRsrmfO2s-33" style="edgeStyle=orthogonalEdgeStyle;rounded=0;orthogonalLoop=1;jettySize=auto;html=1;entryX=0.5;entryY=1;entryDx=0;entryDy=0;" edge="1" parent="1" source="aSsw-ouWqBEXRsrmfO2s-13" target="aSsw-ouWqBEXRsrmfO2s-32">
          <mxGeometry relative="1" as="geometry" />
        </mxCell>
        <mxCell id="aSsw-ouWqBEXRsrmfO2s-13" value="线程分配" style="whiteSpace=wrap;html=1;" vertex="1" parent="1">
          <mxGeometry x="536" y="260" width="120" height="60" as="geometry" />
        </mxCell>
        <mxCell id="aSsw-ouWqBEXRsrmfO2s-18" value="" style="rounded=0;whiteSpace=wrap;html=1;fillColor=none;" vertex="1" parent="1">
          <mxGeometry x="772" y="14" width="218" height="306" as="geometry" />
        </mxCell>
        <mxCell id="aSsw-ouWqBEXRsrmfO2s-19" value="线程池" style="text;html=1;align=center;verticalAlign=middle;whiteSpace=wrap;rounded=0;" vertex="1" parent="1">
          <mxGeometry x="774" y="20" width="60" height="30" as="geometry" />
        </mxCell>
        <mxCell id="aSsw-ouWqBEXRsrmfO2s-36" style="edgeStyle=orthogonalEdgeStyle;rounded=0;orthogonalLoop=1;jettySize=auto;html=1;" edge="1" parent="1" source="aSsw-ouWqBEXRsrmfO2s-21">
          <mxGeometry relative="1" as="geometry">
            <mxPoint x="658.1648254394531" y="98.14686584472656" as="targetPoint" />
          </mxGeometry>
        </mxCell>
        <mxCell id="aSsw-ouWqBEXRsrmfO2s-21" value="" style="rounded=0;whiteSpace=wrap;html=1;" vertex="1" parent="1">
          <mxGeometry x="799" y="60" width="170" height="114" as="geometry" />
        </mxCell>
        <mxCell id="aSsw-ouWqBEXRsrmfO2s-22" value="Thread" style="rounded=0;whiteSpace=wrap;html=1;" vertex="1" parent="1">
          <mxGeometry x="818" y="76" width="57" height="35" as="geometry" />
        </mxCell>
        <mxCell id="aSsw-ouWqBEXRsrmfO2s-23" value="Thread" style="rounded=0;whiteSpace=wrap;html=1;" vertex="1" parent="1">
          <mxGeometry x="891" y="76" width="57" height="35" as="geometry" />
        </mxCell>
        <mxCell id="aSsw-ouWqBEXRsrmfO2s-24" value="Thread" style="rounded=0;whiteSpace=wrap;html=1;" vertex="1" parent="1">
          <mxGeometry x="821" y="125" width="57" height="35" as="geometry" />
        </mxCell>
        <mxCell id="aSsw-ouWqBEXRsrmfO2s-25" value="Thread" style="rounded=0;whiteSpace=wrap;html=1;" vertex="1" parent="1">
          <mxGeometry x="891" y="125" width="57" height="35" as="geometry" />
        </mxCell>
        <mxCell id="aSsw-ouWqBEXRsrmfO2s-26" value="核心线程" style="text;html=1;align=center;verticalAlign=middle;whiteSpace=wrap;rounded=0;" vertex="1" parent="1">
          <mxGeometry x="851" y="50" width="60" height="30" as="geometry" />
        </mxCell>
        <mxCell id="aSsw-ouWqBEXRsrmfO2s-27" value="Thread" style="rounded=0;whiteSpace=wrap;html=1;" vertex="1" parent="1">
          <mxGeometry x="807" y="237" width="57" height="35" as="geometry" />
        </mxCell>
        <mxCell id="aSsw-ouWqBEXRsrmfO2s-28" value="Thread" style="rounded=0;whiteSpace=wrap;html=1;" vertex="1" parent="1">
          <mxGeometry x="893" y="237" width="57" height="35" as="geometry" />
        </mxCell>
        <mxCell id="aSsw-ouWqBEXRsrmfO2s-31" value="获取线程" style="text;html=1;align=center;verticalAlign=middle;whiteSpace=wrap;rounded=0;" vertex="1" parent="1">
          <mxGeometry x="677" y="242" width="60" height="30" as="geometry" />
        </mxCell>
        <mxCell id="aSsw-ouWqBEXRsrmfO2s-35" value="" style="edgeStyle=orthogonalEdgeStyle;rounded=0;orthogonalLoop=1;jettySize=auto;html=1;" edge="1" parent="1" source="aSsw-ouWqBEXRsrmfO2s-32" target="aSsw-ouWqBEXRsrmfO2s-34">
          <mxGeometry relative="1" as="geometry" />
        </mxCell>
        <mxCell id="aSsw-ouWqBEXRsrmfO2s-32" value="线程执行任务" style="rounded=1;whiteSpace=wrap;html=1;" vertex="1" parent="1">
          <mxGeometry x="536" y="160" width="120" height="60" as="geometry" />
        </mxCell>
        <mxCell id="aSsw-ouWqBEXRsrmfO2s-37" value="" style="edgeStyle=orthogonalEdgeStyle;rounded=0;orthogonalLoop=1;jettySize=auto;html=1;entryX=1;entryY=0.5;entryDx=0;entryDy=0;" edge="1" parent="1" source="aSsw-ouWqBEXRsrmfO2s-34" target="aSsw-ouWqBEXRsrmfO2s-3">
          <mxGeometry relative="1" as="geometry" />
        </mxCell>
        <mxCell id="aSsw-ouWqBEXRsrmfO2s-34" value="任务获取" style="rounded=1;whiteSpace=wrap;html=1;" vertex="1" parent="1">
          <mxGeometry x="536" y="70" width="120" height="60" as="geometry" />
        </mxCell>
        <mxCell id="aSsw-ouWqBEXRsrmfO2s-38" value="" style="endArrow=classic;html=1;rounded=0;entryX=0.75;entryY=0;entryDx=0;entryDy=0;" edge="1" parent="1" target="aSsw-ouWqBEXRsrmfO2s-32">
          <mxGeometry width="50" height="50" relative="1" as="geometry">
            <mxPoint x="625" y="130" as="sourcePoint" />
            <mxPoint x="675" y="80" as="targetPoint" />
          </mxGeometry>
        </mxCell>
      </root>
    </mxGraphModel>
  </diagram>
</mxfile>
